<svg width="1600" height="1000" viewBox="0 0 1600 1000" fill="none" xmlns="http://www.w3.org/2000/svg">
  <rect width="1600" height="1000" fill="#F8F1E8"/>
  <circle cx="1400" cy="40" r="280" fill="#F3D9BE"/>
  <path d="M0 0H1600V520C1210 430 930 610 580 510C300 430 130 500 0 550V0Z" fill="#F7E4D4"/>
  <circle cx="112" cy="102" r="26" fill="#BD5F45"/>
  <text x="102" y="111" fill="#FFFAF4" font-family="Georgia, serif" font-size="29" font-weight="700">B</text>
  <text x="155" y="100" fill="#372B27" font-family="Georgia, serif" font-size="30" font-weight="700">Bokun</text>
  <text x="155" y="124" fill="#85766C" font-family="Arial, sans-serif" font-size="12" letter-spacing="3">PAŠTICERIJE</text>
  <text x="110" y="245" fill="#BD5F45" font-family="Arial, sans-serif" font-size="16" font-weight="700" letter-spacing="4">MALA RADIONICA VELIKIH UŽITAKA</text>
  <text x="110" y="330" fill="#372B27" font-family="Georgia, serif" font-size="76" font-weight="700">Nešto slatko,</text>
  <text x="110" y="412" fill="#BD5F45" font-family="Georgia, serif" font-size="76" font-style="italic">baš po tvom ukusu.</text>
  <text x="110" y="468" fill="#85766C" font-family="Arial, sans-serif" font-size="20">Ručno rađene torte, kolači i peciva iz srca Bokuna.</text>
  <rect x="110" y="520" width="190" height="52" rx="26" fill="#BD5F45"/>
  <text x="142" y="553" fill="#FFFAF4" font-family="Arial, sans-serif" font-size="15" font-weight="700">Pogledaj ponudu  →</text>
  <circle cx="1260" cy="285" r="170" fill="#F3C49A" opacity=".8"/>
  <rect x="1055" y="300" width="300" height="145" rx="18" transform="rotate(-7 1055 300)" fill="#F5C0A0"/>
  <rect x="1110" y="225" width="200" height="110" rx="18" transform="rotate(5 1110 225)" fill="#D98D68"/>
  <rect x="1055" y="300" width="300" height="25" rx="12" transform="rotate(-7 1055 300)" fill="#FFF8EC"/>
  <circle cx="1130" cy="298" r="20" fill="#BD5F45"/><circle cx="1250" cy="282" r="20" fill="#BD5F45"/>
  <text x="1150" y="515" fill="#85766C" font-family="Arial, sans-serif" font-size="14">Danas iz pećnice</text>
  <text x="1150" y="540" fill="#BD5F45" font-family="Arial, sans-serif" font-size="14" font-weight="700">08:00 — 18:00</text>
  <rect x="80" y="650" width="1440" height="2" fill="#E4D3C3"/>
  <text x="110" y="730" fill="#BD5F45" font-family="Arial, sans-serif" font-size="14" font-weight="700" letter-spacing="3">NAŠA VITRINA</text>
  <text x="110" y="790" fill="#372B27" font-family="Georgia, serif" font-size="48" font-weight="700">Slastice za svaki <tspan fill="#BD5F45" font-style="italic">trenutak.</tspan></text>
  <rect x="110" y="840" width="390" height="110" rx="8" fill="#FFFDF9" stroke="#EAD9CA"/>
  <rect x="525" y="840" width="390" height="110" rx="8" fill="#FFFDF9" stroke="#EAD9CA"/>
  <rect x="940" y="840" width="390" height="110" rx="8" fill="#FFFDF9" stroke="#EAD9CA"/>
  <text x="135" y="885" fill="#372B27" font-family="Georgia, serif" font-size="23" font-weight="700">Jagoda Pavlova</text>
  <text x="135" y="917" fill="#85766C" font-family="Arial, sans-serif" font-size="13">Torte · 5,80 €</text>
  <text x="550" y="885" fill="#372B27" font-family="Georgia, serif" font-size="23" font-weight="700">Kroasan s bademom</text>
  <text x="550" y="917" fill="#85766C" font-family="Arial, sans-serif" font-size="13">Peciva · 3,40 €</text>
  <text x="965" y="885" fill="#372B27" font-family="Georgia, serif" font-size="23" font-weight="700">Mini tart limun</text>
  <text x="965" y="917" fill="#85766C" font-family="Arial, sans-serif" font-size="13">Kolači · 4,60 €</text>
</svg>
